<?xml version="1.0" encoding="utf-8"?>
<!-- Generator: Adobe Illustrator 16.0.0, SVG Export Plug-In . SVG Version: 6.00 Build 0)  -->
<!DOCTYPE svg PUBLIC "-//W3C//DTD SVG 1.1//EN" "http://www.w3.org/Graphics/SVG/1.1/DTD/svg11.dtd">
<svg version="1.1" xmlns="http://www.w3.org/2000/svg" xmlns:xlink="http://www.w3.org/1999/xlink" x="0px" y="0px"
	 width="846.452px" height="313.7px" viewBox="0 0 846.452 313.7" enable-background="new 0 0 846.452 313.7" xml:space="preserve">
<g id="Dots_Bg">
	<circle fill="#D448BC" cx="55.011" cy="171.682" r="8.074"/>
	<circle fill="#1E1744" cx="92.905" cy="191.221" r="7.751"/>
	<circle fill="#E3D3CB" cx="55.549" cy="222.602" r="4.844"/>
	<circle fill="#DB47BA" cx="24.114" cy="211.189" r="2.261"/>
	<circle fill="#361A61" cx="26.375" cy="171.25" r="2.261"/>
	<circle fill="#00C6FF" cx="1.938" cy="234.658" r="1.938"/>
	<circle fill="#FF6700" cx="88.061" cy="216.357" r="2.906"/>
	<circle fill="#03C5FF" cx="115.62" cy="211.729" r="2.261"/>
	<circle fill="#F1D16C" cx="125.605" cy="219.91" r="2.261"/>
	<circle fill="#331951" cx="134.729" cy="213.451" r="2.26"/>
	<circle fill="#341458" cx="142.884" cy="188.018" r="6.379"/>
	<circle fill="#00C7F9" cx="158.063" cy="162.719" r="2.342"/>
	<circle fill="#2E273A" cx="165.895" cy="160.377" r="1.453"/>
	<circle fill="#893B84" cx="181.774" cy="171.358" r="6.298"/>
	<circle fill="#F5DC4A" cx="116.589" cy="143.476" r="2.664"/>
	<circle fill="#8D3894" cx="202.066" cy="176.122" r="2.665"/>
	<circle fill="#FE6B01" cx="222.198" cy="190.17" r="12.999"/>
	<circle fill="#1C1543" cx="236.946" cy="165.463" r="4.764"/>
	<circle fill="#913A82" cx="197.68" cy="142.776" r="2.261"/>
	<circle fill="#77507C" cx="193.912" cy="135.429" r="1.373"/>
	<circle fill="#7C4778" cx="204.138" cy="134.056" r="1.211"/>
	<circle fill="#F2DA41" cx="160.296" cy="117.504" r="3.553"/>
	<circle fill="#857287" cx="216.923" cy="239.584" r="1.615"/>
	<circle fill="#588DF4" cx="251.964" cy="244.213" r="2.584"/>
	<circle fill="#63606E" cx="218.537" cy="218.51" r="1.211"/>
	<circle fill="#FF6C00" cx="249.3" cy="213.988" r="2.664"/>
	<circle fill="#8492C7" cx="292.172" cy="183.953" r="1.857"/>
	<circle fill="#958995" cx="320.351" cy="193.885" r="1.534"/>
	<circle fill="#4F00FC" cx="235.735" cy="180.967" r="1.211"/>
	<circle fill="#8F3185" cx="266.741" cy="156.946" r="2.341"/>
	<circle fill="#1C1540" cx="260.576" cy="106.685" r="4.925"/>
	<circle fill="#D449B6" cx="276.429" cy="90.698" r="6.54"/>
	<circle fill="#7F5A7E" cx="298.067" cy="103.456" r="1.696"/>
	<circle fill="#BB5BA7" cx="311.173" cy="70.836" r="2.019"/>
	<circle fill="#331063" cx="345.462" cy="88.518" r="2.503"/>
	<circle fill="#FF6B01" cx="375.362" cy="90.456" r="11.304"/>
	<circle fill="#CB4DB5" cx="402.222" cy="105.958" r="2.099"/>
	<circle display="none" fill="#02053B" cx="392.667" cy="61.066" r="6.621"/>
	<circle fill="#06C2FF" cx="349.983" cy="54.446" r="3.472"/>
	<circle fill="#F94169" cx="351.651" cy="37.706" r="2.342"/>
	<circle fill="#DC48B8" cx="303.233" cy="34.583" r="6.459"/>
	<circle fill="#05C1FE" cx="262.218" cy="41.043" r="2.664"/>
	<circle display="none" fill="#03043C" cx="374.232" cy="136.479" r="20.023"/>
	<circle fill="#1E1840" cx="115.62" cy="63.381" r="8.235"/>
	<circle fill="#3336A1" cx="312.842" cy="130.02" r="2.341"/>
	<circle fill="#E247B6" cx="371.352" cy="181.451" r="2.18"/>
	<circle fill="#01C6FF" cx="288.62" cy="2.503" r="2.503"/>
	<circle display="none" fill="#FF314B" cx="169.286" cy="-19.162" r="2.987"/>
	<circle fill="#D349B0" cx="141.888" cy="55.146" r="1.803"/>
	<circle fill="#321959" cx="78.022" cy="105.124" r="2.261"/>
	<circle fill="#FD3455" cx="373.128" cy="11.896" r="2.786"/>
</g>
<g id="V">
	<polygon fill="#FFFFFF" points="77.443,188.787 137.398,55.76 153.637,55.76 77.443,213.768 0,55.76 14.989,55.76 	"/>
</g>
<g id="I">
	<polyline fill="#FFFFFF" points="239.198,53.886 250.44,53.886 250.44,215.641 239.198,215.641 239.198,53.886 250.44,53.886 	"/>
</g>
<g id="I-2">
	<polyline fill="#FFFFFF" points="567.256,56.905 578.498,56.905 578.498,218.66 567.256,218.66 567.256,56.905 578.498,56.905 	"/>
</g>
<g id="V_Design">
	<polygon opacity="0.1" points="313.268,55.76 379.885,55.76 408.51,108.637 437.343,55.76 503.545,55.76 408.51,219.805 	"/>
	<linearGradient id="SVGID_1_" gradientUnits="userSpaceOnUse" x1="313.2676" y1="82.1982" x2="379.8853" y2="82.1982">
		<stop  offset="0" style="stop-color:#FF512F"/>
		<stop  offset="1" style="stop-color:#DD2476"/>
	</linearGradient>
	<polyline fill="url(#SVGID_1_)" points="313.268,55.76 379.885,55.76 343.967,108.637 313.268,55.76 	"/>
	<linearGradient id="SVGID_2_" gradientUnits="userSpaceOnUse" x1="343.9668" y1="82.1982" x2="408.5098" y2="82.1982">
		<stop  offset="0" style="stop-color:#FF512F"/>
		<stop  offset="1" style="stop-color:#DD2476"/>
	</linearGradient>
	<polyline fill="url(#SVGID_2_)" points="379.885,55.76 408.51,108.637 343.967,108.637 379.885,55.76 	"/>
	<linearGradient id="SVGID_3_" gradientUnits="userSpaceOnUse" x1="408.4053" y1="82.1025" x2="473.0225" y2="82.1025">
		<stop  offset="0" style="stop-color:#FF512F"/>
		<stop  offset="1" style="stop-color:#DD2476"/>
	</linearGradient>
	<polyline fill="url(#SVGID_3_)" points="437.343,55.76 408.405,108.445 473.022,108.445 437.343,55.76 	"/>
	<linearGradient id="SVGID_4_" gradientUnits="userSpaceOnUse" x1="437.3428" y1="82.1982" x2="503.5449" y2="82.1982">
		<stop  offset="0" style="stop-color:#FF512F"/>
		<stop  offset="1" style="stop-color:#DD2476"/>
	</linearGradient>
	<polyline fill="url(#SVGID_4_)" points="437.343,55.76 503.545,55.76 473.022,108.637 437.343,55.76 	"/>
	<linearGradient id="SVGID_5_" gradientUnits="userSpaceOnUse" x1="343.9668" y1="136.4287" x2="408.5098" y2="136.4287">
		<stop  offset="0" style="stop-color:#FF512F"/>
		<stop  offset="1" style="stop-color:#DD2476"/>
	</linearGradient>
	<polygon fill="url(#SVGID_5_)" points="343.967,108.637 376.238,164.221 408.51,108.637 	"/>
	<linearGradient id="SVGID_6_" gradientUnits="userSpaceOnUse" x1="408.4053" y1="136.437" x2="473.1348" y2="136.437">
		<stop  offset="0" style="stop-color:#FF512F"/>
		<stop  offset="1" style="stop-color:#DD2476"/>
	</linearGradient>
	<polygon fill="url(#SVGID_6_)" points="408.405,108.445 473.135,108.445 440.59,164.429 	"/>
	<linearGradient id="SVGID_7_" gradientUnits="userSpaceOnUse" x1="376.2378" y1="136.5332" x2="440.5898" y2="136.5332">
		<stop  offset="0" style="stop-color:#FF512F"/>
		<stop  offset="1" style="stop-color:#DD2476"/>
	</linearGradient>
	<polygon fill="url(#SVGID_7_)" points="376.238,164.221 440.59,164.429 408.51,108.637 	"/>
	<linearGradient id="SVGID_8_" gradientUnits="userSpaceOnUse" x1="376.2378" y1="192.0127" x2="440.5898" y2="192.0127">
		<stop  offset="0" style="stop-color:#FF512F"/>
		<stop  offset="1" style="stop-color:#DD2476"/>
	</linearGradient>
	<polygon fill="url(#SVGID_8_)" points="376.238,164.221 408.51,219.805 440.59,164.429 	"/>
</g>
<g id="Layer_8">
	
		<text transform="matrix(1.01 0 0 0.97 100.1084 313.7354)" display="none" font-family="'CenturyGothic'" font-size="60" letter-spacing="16.832">WEB SOLUTIONS</text>
	<g>
		<path fill="#FFFFFF" d="M138.243,278.562h3.821l7.604,24.7l10.671-24.7h0.772l10.547,24.7l7.734-24.7h3.792l-10.696,34.276h-0.691
			l-11.046-25.934l-11.261,25.934h-0.694L138.243,278.562z"/>
		<path fill="#FFFFFF" d="M205.409,278.562h21.333v3.355h-17.613v10.742h17.461v3.355h-17.461v13.468h17.461v3.355h-21.181V278.562z
			"/>
		<path fill="#FFFFFF" d="M248.56,278.562h7.338c2.953,0,5.222,0.323,6.808,0.967c1.585,0.645,2.838,1.635,3.758,2.972
			c0.919,1.336,1.379,2.819,1.379,4.45c0,1.522-0.403,2.909-1.208,4.159c-0.806,1.251-1.99,2.265-3.55,3.041
			c1.934,0.606,3.422,1.316,4.465,2.132c1.042,0.815,1.854,1.802,2.435,2.959c0.58,1.158,0.871,2.412,0.871,3.764
			c0,2.75-1.092,5.076-3.277,6.979c-2.186,1.903-5.117,2.854-8.794,2.854H248.56V278.562z M252.204,281.917v10.976h2.13
			c2.586,0,4.489-0.223,5.706-0.665s2.181-1.142,2.891-2.097c0.71-0.955,1.065-2.016,1.065-3.181c0-1.569-0.596-2.8-1.788-3.693
			s-3.089-1.34-5.693-1.34H252.204z M252.204,296.341v13.142h4.614c2.721,0,4.714-0.244,5.982-0.734
			c1.267-0.488,2.285-1.253,3.054-2.295c0.769-1.04,1.153-2.166,1.153-3.378c0-1.522-0.54-2.852-1.621-3.985s-2.567-1.91-4.459-2.33
			c-1.268-0.279-3.475-0.419-6.619-0.419H252.204z"/>
		<path fill="#FFFFFF" d="M319.298,306.453l3.163-1.747c2.227,3.774,4.799,5.662,7.718,5.662c1.248,0,2.42-0.268,3.518-0.804
			c1.096-0.536,1.931-1.255,2.505-2.156c0.574-0.9,0.861-1.855,0.861-2.865c0-1.15-0.422-2.275-1.266-3.379
			c-1.164-1.521-3.29-3.355-6.377-5.499c-3.104-2.159-5.036-3.721-5.795-4.684c-1.316-1.615-1.974-3.363-1.974-5.243
			c0-1.491,0.388-2.851,1.165-4.077c0.775-1.228,1.868-2.194,3.277-2.901c1.408-0.707,2.939-1.061,4.593-1.061
			c1.754,0,3.395,0.4,4.922,1.2c1.526,0.801,3.142,2.272,4.846,4.416l-3.037,2.12c-1.4-1.709-2.594-2.835-3.581-3.379
			c-0.987-0.543-2.063-0.815-3.227-0.815c-1.502,0-2.729,0.42-3.683,1.259c-0.953,0.839-1.429,1.871-1.429,3.099
			c0,0.746,0.168,1.468,0.506,2.167c0.337,0.699,0.952,1.46,1.847,2.283c0.489,0.436,2.092,1.577,4.809,3.426
			c3.222,2.19,5.432,4.14,6.63,5.849c1.197,1.709,1.797,3.425,1.797,5.15c0,2.484-1.025,4.645-3.075,6.477
			c-2.05,1.834-4.542,2.75-7.478,2.75c-2.261,0-4.311-0.556-6.149-1.666S320.849,309.063,319.298,306.453z"/>
		<path fill="#FFFFFF" d="M381.972,277.699c5.638,0,10.356,1.732,14.155,5.196c3.798,3.465,5.698,7.729,5.698,12.793
			c0,5.018-1.896,9.273-5.685,12.769c-3.79,3.496-8.411,5.243-13.864,5.243c-5.521,0-10.18-1.74-13.978-5.22
			c-3.798-3.479-5.697-7.689-5.697-12.629c0-3.294,0.865-6.346,2.595-9.157c1.73-2.812,4.089-5.014,7.078-6.606
			S378.494,277.699,381.972,277.699z M382.136,281.031c-2.754,0-5.365,0.661-7.832,1.982c-2.467,1.321-4.394,3.103-5.779,5.341
			s-2.078,4.733-2.078,7.485c0,4.073,1.533,7.514,4.6,10.318c3.067,2.808,6.763,4.21,11.089,4.21c2.89,0,5.564-0.646,8.022-1.936
			c2.459-1.29,4.376-3.055,5.753-5.294c1.377-2.238,2.066-4.726,2.066-7.463c0-2.72-0.688-5.181-2.066-7.38
			c-1.377-2.2-3.316-3.961-5.817-5.282S384.941,281.031,382.136,281.031z"/>
		<path fill="#FFFFFF" d="M424.578,278.562h3.72v30.968h14.323v3.309h-18.043V278.562z"/>
		<path fill="#FFFFFF" d="M463.934,278.562h3.719v20.691c0,2.455,0.051,3.985,0.152,4.591c0.186,1.352,0.616,2.481,1.291,3.391
			c0.675,0.908,1.712,1.67,3.112,2.283s2.809,0.921,4.226,0.921c1.231,0,2.412-0.241,3.543-0.723
			c1.13-0.481,2.075-1.149,2.834-2.004c0.76-0.854,1.316-1.888,1.671-3.1c0.253-0.869,0.379-2.655,0.379-5.359v-20.691h3.72v20.691
			c0,3.061-0.325,5.534-0.974,7.422c-0.65,1.887-1.948,3.53-3.897,4.928c-1.947,1.398-4.307,2.098-7.073,2.098
			c-3.003,0-5.576-0.661-7.718-1.98c-2.143-1.32-3.576-3.067-4.302-5.243c-0.456-1.336-0.683-3.743-0.683-7.224V278.562z"/>
		<path fill="#FFFFFF" d="M509.335,281.917v-3.355h20.397v3.355h-8.3v30.921h-3.797v-30.921H509.335z"/>
		<path fill="#FFFFFF" d="M549.854,278.562h3.72v34.276h-3.72V278.562z"/>
		<path fill="#FFFFFF" d="M595.118,277.699c5.638,0,10.356,1.732,14.154,5.196c3.799,3.465,5.698,7.729,5.698,12.793
			c0,5.018-1.896,9.273-5.686,12.769c-3.789,3.496-8.411,5.243-13.863,5.243c-5.52,0-10.181-1.74-13.978-5.22
			c-3.799-3.479-5.697-7.689-5.697-12.629c0-3.294,0.864-6.346,2.594-9.157c1.731-2.812,4.091-5.014,7.079-6.606
			S591.64,277.699,595.118,277.699z M595.282,281.031c-2.754,0-5.365,0.661-7.832,1.982s-4.393,3.103-5.779,5.341
			c-1.385,2.238-2.078,4.733-2.078,7.485c0,4.073,1.533,7.514,4.601,10.318c3.066,2.808,6.763,4.21,11.089,4.21
			c2.89,0,5.564-0.646,8.022-1.936s4.376-3.055,5.754-5.294c1.377-2.238,2.065-4.726,2.065-7.463c0-2.72-0.688-5.181-2.065-7.38
			c-1.378-2.2-3.316-3.961-5.818-5.282C600.741,281.692,598.088,281.031,595.282,281.031z"/>
		<path fill="#FFFFFF" d="M637.75,312.838v-34.276h0.81l24.774,26.274v-26.274h3.67v34.276h-0.835l-24.573-25.954v25.954H637.75z"/>
		<path fill="#FFFFFF" d="M687.505,306.453l3.164-1.747c2.227,3.774,4.8,5.662,7.718,5.662c1.248,0,2.421-0.268,3.519-0.804
			c1.096-0.536,1.931-1.255,2.504-2.156c0.573-0.9,0.86-1.855,0.86-2.865c0-1.15-0.421-2.275-1.265-3.379
			c-1.165-1.521-3.29-3.355-6.377-5.499c-3.104-2.159-5.036-3.721-5.795-4.684c-1.316-1.615-1.975-3.363-1.975-5.243
			c0-1.491,0.389-2.851,1.165-4.077c0.775-1.228,1.867-2.194,3.276-2.901c1.408-0.707,2.939-1.061,4.593-1.061
			c1.755,0,3.395,0.4,4.922,1.2c1.527,0.801,3.143,2.272,4.846,4.416l-3.036,2.12c-1.4-1.709-2.594-2.835-3.58-3.379
			c-0.987-0.543-2.063-0.815-3.228-0.815c-1.501,0-2.729,0.42-3.683,1.259c-0.951,0.839-1.429,1.871-1.429,3.099
			c0,0.746,0.169,1.468,0.507,2.167c0.337,0.699,0.952,1.46,1.847,2.283c0.489,0.436,2.092,1.577,4.809,3.426
			c3.222,2.19,5.432,4.14,6.63,5.849c1.197,1.709,1.796,3.425,1.796,5.15c0,2.484-1.024,4.645-3.074,6.477
			c-2.05,1.834-4.542,2.75-7.479,2.75c-2.261,0-4.31-0.556-6.148-1.666C690.752,310.924,689.057,309.063,687.505,306.453z"/>
	</g>
</g>
<g id="D">
	<path display="none" fill="#FFFFFF" d="M842.383,140.836c0,0,0.01-0.1,0.01-0.3c0-0.09,0.01-0.21,0.01-0.36
		c0.03-0.79-0.095-2.28-0.175-4.3c-0.329-8.62-2.135-27.42-14.135-44.79v-0.01c0-0.58-0.635-1.15-1.035-1.72
		c-2.42-3.44-5.143-6.815-8.382-10.015c-12.4-12.26-31.203-22.425-59.883-24.425h-59.7l0.03,13h60.59
		c19.96,2,34.28,7.58,44.55,15.42c1.08,0.83,2.12,1.695,3.11,2.555c0.75,0.65,1.47,1.317,2.17,1.988
		c0.229,0.22,0.46,0.443,0.68,0.683c0.46,0.45,1.03,0.902,1.47,1.362c0.44,0.45,0.4,0.912,1.4,1.372v0.01c0,0.46,1,0.92,1,1.39
		c0,0.01,0,0.01,0,0.01c13,16.02,15.744,35.27,16.064,43.49c0.061,1.69,0.013,2.93-0.007,3.6c-0.011,0.29-0.058,0.44-0.058,0.44
		v0.08c0,0.04,0,0.06,0,0.06c0,1.86,0.096,3.825,0.035,5.575c-2.141,55.55-70.415,61.965-70.415,61.965h-60.59l-0.03,13h59.7
		c0,0,81.06-7.551,83.6-73.49C842.473,145.336,842.473,143.046,842.383,140.836z"/>
	<polygon fill="#FFFFFF" points="699.093,67.976 699.093,207.586 699.093,220.916 687.093,220.916 687.093,54.916 699.093,54.916 	
		"/>
	<path fill="#FFFFFF" d="M846.383,140.976c0,0,0.01-0.1,0.01-0.3c0.01-0.1,0.01-0.22,0.01-0.36c0.03-0.79-0.095-2.28-0.175-4.3
		c-0.359-8.71-2.135-27.47-14.135-44.79v-0.01c0-0.57-0.635-1.15-1.035-1.72c-2.42-3.44-5.143-6.81-8.382-10.01
		c-12.4-12.29-31.237-22.165-59.917-24.435l-59.666-0.135h-8v13h12h56.62c19.96,2,34.28,7.65,44.55,15.52
		c1.08,0.83,2.12,1.705,3.11,2.575c0.75,0.65,1.47,1.327,2.17,1.998c0.229,0.22,0.46,0.449,0.68,0.688
		c0.46,0.45,1.03,0.904,1.47,1.364c0.44,0.45,0.4,0.915,1.4,1.375v0.01c0,0.46,1,0.92,1,1.39c0,0.01,0,0.01,0,0.01
		c13,16,15.715,35.18,16.064,43.49c0.061,1.69,0.013,2.93-0.007,3.6c0,0.26-0.058,0.43-0.058,0.52c0,0.04,0,0.06,0,0.06
		c0,1.86,0.096,3.59,0.035,5.34c-2.02,55.679-70.415,62.06-70.415,62.06h-56.62l-3.97-0.26l-0.03,13.119v0.15l59.7,0.13
		c0,0,81.18-7.55,83.6-73.63C846.473,145.335,846.473,143.186,846.383,140.976z"/>
</g>
<g id="Layer_6" display="none">
</g>
</svg>
